<?xml version="1.0" encoding="utf-8"?>
<!-- Generator: Adobe Illustrator 17.0.0, SVG Export Plug-In . SVG Version: 6.00 Build 0)  -->
<!DOCTYPE svg PUBLIC "-//W3C//DTD SVG 1.1//EN" "http://www.w3.org/Graphics/SVG/1.1/DTD/svg11.dtd">
<svg version="1.1" id="Layer_1" xmlns="http://www.w3.org/2000/svg" xmlns:xlink="http://www.w3.org/1999/xlink" x="0px" y="0px"
	 width="300px" height="80px" viewBox="0 0 300 80" enable-background="new 0 0 300 80" xml:space="preserve">
<g>
	<g>
		<rect x="7.738" y="55.416" fill-rule="evenodd" clip-rule="evenodd" fill="#302E2F" width="43.685" height="11.219"/>
		<rect x="7.618" y="14.487" fill-rule="evenodd" clip-rule="evenodd" fill="#302E2F" width="43.685" height="11.219"/>
		<rect x="7.618" y="34.492" fill-rule="evenodd" clip-rule="evenodd" fill="#302E2F" width="43.685" height="11.219"/>
		<rect x="39.339" y="55.416" fill-rule="evenodd" clip-rule="evenodd" fill="#DD8326" width="12.084" height="11.219"/>
	</g>
	<rect x="68.7" y="6.699" fill-rule="evenodd" clip-rule="evenodd" fill="#302E2F" width="0.716" height="66.601"/>
	<g>
		<path fill="#302E2F" d="M103.427,41.514H92.227v8.73h12.523v4.455H86.802V24.977h17.287v4.454H92.227v7.673h11.201V41.514z"/>
		<path fill="#302E2F" d="M109.513,54.699V24.977h6.174l7.673,12.745c1.984,3.307,3.705,6.747,5.071,9.966h0.088
			c-0.353-3.969-0.485-7.806-0.485-12.348V24.977h5.027v29.723h-5.601l-7.761-13.054c-1.896-3.263-3.88-6.923-5.335-10.274
			l-0.132,0.044c0.22,3.836,0.264,7.761,0.264,12.656v10.628H109.513z"/>
		<path fill="#302E2F" d="M138.322,25.374c2.381-0.397,5.424-0.617,8.643-0.617c5.557,0,9.393,1.146,12.127,3.439
			c2.866,2.337,4.63,5.865,4.63,10.937c0,5.292-1.809,9.26-4.63,11.818c-2.955,2.69-7.673,4.058-13.45,4.058
			c-3.175,0-5.556-0.177-7.32-0.397V25.374z M143.747,50.554c0.75,0.132,1.896,0.132,2.999,0.132
			c7.056,0.045,11.245-3.836,11.245-11.377c0.044-6.571-3.749-10.319-10.54-10.319c-1.72,0-2.955,0.132-3.704,0.309V50.554z"/>
		<path fill="#DC8327" d="M178.569,25.374c1.94-0.353,4.631-0.617,8.29-0.617c3.97,0,6.88,0.838,8.776,2.425
			c1.764,1.455,2.91,3.792,2.91,6.571c0,2.822-0.882,5.159-2.558,6.747c-2.161,2.161-5.557,3.175-9.393,3.175
			c-1.015,0-1.94-0.043-2.646-0.176v11.201h-5.38V25.374z M183.948,39.22c0.661,0.177,1.544,0.221,2.646,0.221
			c4.057,0,6.526-1.984,6.526-5.468c0-3.307-2.293-5.071-6.042-5.071c-1.499,0-2.558,0.132-3.131,0.265V39.22z"/>
		<path fill="#DC8327" d="M228.589,39.529c0,9.966-6.042,15.654-14.244,15.654c-8.379,0-13.67-6.395-13.67-15.125
			c0-9.128,5.732-15.566,14.111-15.566C223.473,24.492,228.589,31.063,228.589,39.529z M206.407,39.97
			c0,6.042,3.043,10.848,8.246,10.848c5.248,0,8.202-4.852,8.202-11.069c0-5.601-2.778-10.892-8.202-10.892
			C209.274,28.858,206.407,33.84,206.407,39.97z"/>
		<path fill="#DC8327" d="M237.687,24.977v29.723h-5.424V24.977H237.687z"/>
		<path fill="#DC8327" d="M242.905,54.699V24.977h6.174l7.673,12.745c1.984,3.307,3.704,6.747,5.071,9.966h0.088
			c-0.353-3.969-0.484-7.806-0.484-12.348V24.977h5.027v29.723h-5.601l-7.762-13.054c-1.896-3.263-3.881-6.923-5.336-10.274
			l-0.132,0.044c0.221,3.836,0.265,7.761,0.265,12.656v10.628H242.905z"/>
		<path fill="#DC8327" d="M278.403,29.519h-8.467v-4.542h22.446v4.542h-8.556v25.18h-5.424V29.519z"/>
	</g>
</g>
</svg>
